# xmcd
#
# Track frame offsets:
#	150
#	21186
#	41385
#	58256
#	79061
#
# Disc length: 1853 seconds
#
# Revision: 1
# Processed by: cddbd v1.5.2PL0 Copyright (c) Steve Scherf et al.
# Submitted via: audiograbber 1.83.01
#
DISCID=37073b05
DTITLE=Rascal Flatts - Greatest Hits Volume 1 - Live Hits
DYEAR=2009
DGENRE=Country
TTITLE0=Take Me There (Live In Concert From Nissan Live Sets)
TTITLE1=Winner At A Losing Game (Live In Concert From Nissan Live Sets)
TTITLE2=Me And My Gang (Live In Concert From Nissan Live Sets)
TTITLE3=Summer Nights (Live In Concert)
TTITLE4=Audio Interview With Rascal Flatts
EXTD=
EXTT0=
EXTT1=
EXTT2=
EXTT3=
EXTT4=
PLAYORDER=
